<?xml version="1.0" encoding="utf-8"?>
<?xml-stylesheet type="text/xsl" href="rss1.xsl"?>
<rss version="2.0" xmlns:atom="http://www.w3.org/2005/Atom" xmlns:content="http://purl.org/rss/1.0/modules/content/" xmlns:dc="http://purl.org/dc/elements/1.1/" xmlns:media="http://search.yahoo.com/mrss/">
<channel>
 <title>Getty</title>
 <link>http://www.gettyimg.com/</link>
 <atom:link href="http://www.gettyimg.com/" rel="self" type="application/rss+xml" />

 
                <item>
                <title><![CDATA[【Documentaries】WEB-RiP - Britney Spears - I Am Britney Jean (Full HD WOW+)]]></title>
                <link><![CDATA[https://sharemania.us/threads/britney-spears-i-am-britney-jean-full-hd-wow.242241/]]></link>
                <description><![CDATA[<article>
<blockquote class="messageText SelectQuoteContainer ugc baseHtml">
Ripped by BritneyOnline.org from WOW+<br>
<br>
Size: 3 GB<br>
Format: MP4 HD 1080P<br>
<br>
<img src="https://britneyonline.org/wp-content/uploads/2024/04/43542635476.png" class="bbCodeImage LbImage" alt="[​IMG]" data-url="https://britneyonline.org/wp-content/uploads/2024/04/43542635476.png" style=""> <br>
<div class="bbCodeBlock bbCodeVfcHH HiddenContent">
<div class="attribution type">Hidden Content:</div>
<blockquote>You must either reply or click 'Like' to see the hidden information contained here.</blockquote>
</div>
<div class="messageTextEndMarker">&nbsp;</div>
</blockquote>
</article>]]></description>
                <author><![CDATA[CJMCH]]></author>
                </item>

                
                <item>
                <title><![CDATA[【SD】DVD - Jonas Brothers - I Wanna Be Like With You (5.1 Audio DVD Promo)]]></title>
                <link><![CDATA[https://sharemania.us/threads/jonas-brothers-i-wanna-be-like-with-you-5-1-audio-dvd-promo.242227/]]></link>
                <description><![CDATA[<article>
<blockquote class="messageText SelectQuoteContainer ugc baseHtml">
<div style="text-align: center"><img src="http://imgfz.com/i/2HRWAxc.jpeg" class="bbCodeImage LbImage" alt="[​IMG]" data-url="http://imgfz.com/i/2HRWAxc.jpeg" style=""><br>
<br>
<span style="color: #5900b3"><span style="text-decoration: underline"><span style="font-size: 26px"><i><b>Jonas Brothers - </b></i></span></span><i><b><span style="text-decoration: underline"><span style="font-size: 26px">I Wanna Be Like With You</span></span></b></i></span><br>
<br>
<i><b><span style="color: #5900b3">
<div class="ToggleTriggerAnchor bbCodeSpoilerContainer">
<button type="button" class="button bbCodeSpoilerButton ToggleTrigger Tooltip JsOnly" data-target="> .SpoilerTarget"><span>Spoiler</span></button>
<div class="SpoilerTarget bbCodeSpoilerText">Video<br>
<br>
Format: MPEG Video<br>
Format version: Version 2<br>
Format profile: Main@Main<br>
Format settings: CustomMatrix / BVOP<br>
Format settings, BVOP: Yes<br>
Format settings, Matrix: Custom<br>
Format settings, GOP: Variable<br>
Format settings, picture struc: Frame<br>
Duration: 501 ms<br>
Bit rate mode: Variable<br>
Bit rate: 3 096 kb/s<br>
Maximum bit rate: 9 800 kb/s<br>
Width: 720 pixels<br>
Height: 480 pixels<br>
Display aspect ratio: 4:3<br>
Frame rate: 29.970 (30000/1001) FPS<br>
Standard: NTSC<br>
Color space: YUV<br>
Chroma subsampling: 4:2:0<br>
Bit depth: 8 bits<br>
Scan type: Interlaced<br>
Scan order: Top Field First<br>
Compression mode: Lossy<br>
Bits/(Pixel*Frame): 0.299<br>
Time code of first frame: 00:59:59:00<br>
Time code source: Group of pictures header<br>
Stream size: 189 KiB (0%)<br>
<br>
Audio<br>
<br>
ID: 189 (0xBD)-128 (0x80)<br>
Format: AC-3<br>
Format/Info: Audio Coding 3<br>
Commercial name: Dolby Digital<br>
Muxing mode: DVD-Video<br>
Duration: 2 min 51 s<br>
Bit rate mode: Constant<br>
Bit rate: 384 kb/s<br>
Channel(s): 6 channels<br>
Channel layout: L R C LFE Ls Rs<br>
Sampling rate: 48.0 kHz<br>
Frame rate: 31.250 FPS (1536 SPF)<br>
Compression mode: Lossy<br>
Stream size: 7.83 MiB (11%)<br>
Service kind: Complete Main</div>
</div></span></b></i><br>
<br>
<i><b>
<div class="bbCodeBlock bbCodeVfcHH HiddenContent">
<div class="attribution type">Hidden Content:</div>
<blockquote>You must either reply or click 'Like' to see the hidden information contained here.</blockquote>
</div></b></i><br>
​</div>
<div class="messageTextEndMarker">&nbsp;</div>
</blockquote>
</article>]]></description>
                <author><![CDATA[Synthwave_Evans]]></author>
                </item>

                
                <item>
                <title><![CDATA[【Music Videos】Tears For Fears - Everybody Wants The Rule The World (Harmony &amp; Vocal) (VJ-RoGeRs Video Edit) (Clean)]]></title>
                <link><![CDATA[https://sharemania.us/threads/tears-for-fears-everybody-wants-the-rule-the-world-harmony-vocal-vj-rogers-video-edit-clean.242226/]]></link>
                <description><![CDATA[<article>
<blockquote class="messageText SelectQuoteContainer ugc baseHtml">
thanks
<div class="messageTextEndMarker">&nbsp;</div>
</blockquote>
</article>]]></description>
                <author><![CDATA[DJ-RoGeRs-BS]]></author>
                </item>

                
                <item>
                <title><![CDATA[【Music Videos】Black - Everything Is Coming Up Roses (The Fairly Mental Mix) (VJ-RoGeRs Video Edit) (1080p) (Clean)]]></title>
                <link><![CDATA[https://sharemania.us/threads/black-everything-is-coming-up-roses-the-fairly-mental-mix-vj-rogers-video-edit-1080p-clean.242229/]]></link>
                <description><![CDATA[<article>
<blockquote class="messageText SelectQuoteContainer ugc baseHtml">
<img src="https://i.ibb.co/mR9TGRc/Tears-For-Fears-Everybody-Wants-The-Rule-The-World-Harmony-Vocal-VJ-Ro-Ge-Rs-Video-Edit-mp4-thumbs-2.jpg" class="bbCodeImage LbImage" alt="[​IMG]" data-url="https://i.ibb.co/mR9TGRc/Tears-For-Fears-Everybody-Wants-The-Rule-The-World-Harmony-Vocal-VJ-Ro-Ge-Rs-Video-Edit-mp4-thumbs-2.jpg" style=""> <br>
<br>
<div class="ToggleTriggerAnchor bbCodeSpoilerContainer">
<button type="button" class="button bbCodeSpoilerButton ToggleTrigger Tooltip JsOnly" data-target="> .SpoilerTarget"><span>Spoiler: <span class="SpoilerTitle">MediaInfo</span></span></button>
<div class="SpoilerTarget bbCodeSpoilerText">Tears For Fears - Everybody Wants The Rule The World (Harmony &amp; Vocal) (VJ-RoGeRs Video Edit).mp4<br>
Format : MPEG-4<br>
Format profile : Base Media / Version 2<br>
Codec ID : mp42 (mp42/mp41)<br>
File size : 347 MiB<br>
Duration : 4 min 41 s<br>
Overall bit rate mode : Variable<br>
Overall bit rate : 10.4 Mb/s<br>
Frame rate : 29.970 FPS<br>
Encoded date : 2021-06-12 06:24:58 UTC<br>
Tagged date : 2021-06-12 06:25:10 UTC<br>
TIM : 00:00:05:29<br>
TSC : 30000<br>
TSZ : 1001<br>
<br>
Video<br>
ID : 1<br>
Format : AVC<br>
Format/Info : Advanced Video Codec<br>
Format profile : High@L3.1<br>
Format settings : CABAC / 4 Ref Frames<br>
Format settings, CABAC : Yes<br>
Format settings, Reference : 4 frames<br>
Format settings, GOP : M=3, N=29<br>
Codec ID : avc1<br>
Codec ID/Info : Advanced Video Coding<br>
Duration : 4 min 41 s<br>
Bit rate mode : Variable<br>
Bit rate : 10.0 Mb/s<br>
Maximum bit rate : 12.0 Mb/s<br>
Width : 720 pixels<br>
Height : 480 pixels<br>
Display aspect ratio : 4:3<br>
Original display aspect rat : 4:3<br>
Frame rate mode : Constant<br>
Frame rate : 29.970 (30000/1001) FPS<br>
Standard : NTSC<br>
Color space : YUV<br>
Chroma subsampling : 4:2:0<br>
Bit depth : 8 bits<br>
Scan type : Interlaced<br>
Scan type, store method : Separated fields<br>
Scan order : Top Field First<br>
Bits/(Pixel*Frame) : 0.969<br>
Stream size : 336 MiB (97%)<br>
Language : English<br>
Encoded date : 2021-06-12 06:24:58 UTC<br>
Tagged date : 2021-06-12 06:24:58 UTC<br>
Color range : Limited<br>
Color primaries : BT.601 NTSC<br>
Transfer characteristics : BT.601<br>
Matrix coefficients : BT.601<br>
Codec configuration box : avcC<br>
<br>
Audio<br>
ID : 2<br>
Format : AAC LC<br>
Format/Info : Advanced Audio Codec Low Complexity<br>
Codec ID : mp4a-40-2<br>
Duration : 4 min 41 s<br>
Source duration : 4 min 41 s<br>
Bit rate mode : Variable<br>
Bit rate : 317 kb/s<br>
Maximum bit rate : 368 kb/s<br>
Channel(s) : 2 channels<br>
Channel layout : L R<br>
Sampling rate : 48.0 kHz<br>
Frame rate : 46.875 FPS (1024 SPF)<br>
Compression mode : Lossy<br>
Stream size : 10.6 MiB (3%)<br>
Source stream size : 10.6 MiB (3%)<br>
Language : English<br>
Encoded date : 2021-06-12 06:24:58 UTC<br>
Tagged date : 2021-06-12 06:24:58 UTC</div>
</div><br>
*Edición trabajada en base a multipistas, con el fin de sentir el tema de manera más armoniosa y escuchar otros sonidos que pasan desapercibidos! **Recomiendo escuchar con audífonos!!!<br>
**Edition worked based on multitracks, in order to feel the song in a more harmonious way and listen to other sounds that go unnoticed! **I recommend listening with headphones!!!<br>
<br>
<div class="bbCodeBlock bbCodeVfcHH HiddenContent">
<div class="attribution type">Hidden Content:</div>
<blockquote>You must reply before you can see the hidden data contained here.</blockquote>
</div>
<div class="messageTextEndMarker">&nbsp;</div>
</blockquote>
</article>]]></description>
                <author><![CDATA[DJ-RoGeRs-BS]]></author>
                </item>

                
                <item>
                <title><![CDATA[【DVD】DVD5 - Björk - Live in Cambridge (1998) DVD]]></title>
                <link><![CDATA[https://sharemania.us/threads/bj%C3%B6rk-live-in-cambridge-1998-dvd.242225/]]></link>
                <description><![CDATA[<article>
<blockquote class="messageText SelectQuoteContainer ugc baseHtml">
thank you!
<div class="messageTextEndMarker">&nbsp;</div>
</blockquote>
</article>]]></description>
                <author><![CDATA[Nero]]></author>
                </item>

                
                <item>
                <title><![CDATA[【HD Live Performances】WEB-DL - feeble little horse - Coachella 4-14-24  1080p]]></title>
                <link><![CDATA[https://sharemania.us/threads/feeble-little-horse-coachella-4-14-24-1080p.242237/]]></link>
                <description><![CDATA[<article>
<blockquote class="messageText SelectQuoteContainer ugc baseHtml">
THANK U
<div class="messageTextEndMarker">&nbsp;</div>
</blockquote>
</article>]]></description>
                <author><![CDATA[mooosica]]></author>
                </item>

                
                <item>
                <title><![CDATA[【HD Live Performances】WEB-DL - bar italia - Coachella 4-13-24  1080p]]></title>
                <link><![CDATA[https://sharemania.us/threads/bar-italia-coachella-4-13-24-1080p.242239/]]></link>
                <description><![CDATA[<article>
<blockquote class="messageText SelectQuoteContainer ugc baseHtml">
<img src="https://i.ibb.co/Vpmrh7P/Black-Everything-Is-Coming-Up-Roses-The-Fairly-Mental-Mix-VJ-Ro-Ge-Rs-Video-Edit-mp4-thumbs-2024-04.jpg" class="bbCodeImage LbImage" alt="[​IMG]" data-url="https://i.ibb.co/Vpmrh7P/Black-Everything-Is-Coming-Up-Roses-The-Fairly-Mental-Mix-VJ-Ro-Ge-Rs-Video-Edit-mp4-thumbs-2024-04.jpg" style=""> <br>
<br>
<div class="ToggleTriggerAnchor bbCodeSpoilerContainer">
<button type="button" class="button bbCodeSpoilerButton ToggleTrigger Tooltip JsOnly" data-target="> .SpoilerTarget"><span>Spoiler: <span class="SpoilerTitle">MediaInfo</span></span></button>
<div class="SpoilerTarget bbCodeSpoilerText">Black - Everything Is Coming Up Roses (The Fairly Mental Mix) (VJ-RoGeRs Video Edit).mp4<br>
Format : MPEG-4<br>
Format profile : Base Media / Version 2<br>
Codec ID : mp42 (mp42/mp41)<br>
File size : 204 MiB<br>
Duration : 4 min 27 s<br>
Overall bit rate mode : Variable<br>
Overall bit rate : 6 406 kb/s<br>
Frame rate : 25.000 FPS<br>
Encoded date : 2021-08-24 05:44:17 UTC<br>
Tagged date : 2021-08-24 05:44:23 UTC<br>
TIM : 00:00:00:00<br>
TSC : 25<br>
TSZ : 1<br>
<br>
Video<br>
ID : 1<br>
Format : AVC<br>
Format/Info : Advanced Video Codec<br>
Format profile : Main@L4.1<br>
Format settings : CABAC / 3 Ref Frames<br>
Format settings, CABAC : Yes<br>
Format settings, Reference : 3 frames<br>
Codec ID : avc1<br>
Codec ID/Info : Advanced Video Coding<br>
Duration : 4 min 27 s<br>
Bit rate mode : Variable<br>
Bit rate : 6 084 kb/s<br>
Maximum bit rate : 8 000 kb/s<br>
Width : 1 920 pixels<br>
Height : 1 080 pixels<br>
Display aspect ratio : 16:9<br>
Frame rate mode : Constant<br>
Frame rate : 25.000 FPS<br>
Standard : PAL<br>
Color space : YUV<br>
Chroma subsampling : 4:2:0<br>
Bit depth : 8 bits<br>
Scan type : Progressive<br>
Bits/(Pixel*Frame) : 0.117<br>
Stream size : 194 MiB (95%)<br>
Language : English<br>
Encoded date : 2021-08-24 05:44:17 UTC<br>
Tagged date : 2021-08-24 05:44:17 UTC<br>
Color range : Limited<br>
Codec configuration box : avcC<br>
<br>
Audio<br>
ID : 2<br>
Format : AAC LC<br>
Format/Info : Advanced Audio Codec Low Complexity<br>
Codec ID : mp4a-40-2<br>
Duration : 4 min 27 s<br>
Source duration : 4 min 27 s<br>
Bit rate mode : Variable<br>
Bit rate : 317 kb/s<br>
Maximum bit rate : 419 kb/s<br>
Channel(s) : 2 channels<br>
Channel layout : L R<br>
Sampling rate : 48.0 kHz<br>
Frame rate : 46.875 FPS (1024 SPF)<br>
Compression mode : Lossy<br>
Stream size : 10.1 MiB (5%)<br>
Source stream size : 10.1 MiB (5%)<br>
Language : English<br>
Encoded date : 2021-08-24 05:44:17 UTC<br>
Tagged date : 2021-08-24 05:44:17 UTC</div>
</div><br>
<div class="bbCodeBlock bbCodeVfcHH HiddenContent">
<div class="attribution type">Hidden Content:</div>
<blockquote>You must reply before you can see the hidden data contained here.</blockquote>
</div>
<div class="messageTextEndMarker">&nbsp;</div>
</blockquote>
</article>]]></description>
                <author><![CDATA[mooosica]]></author>
                </item>

                
                <item>
                <title><![CDATA[【HD Live Performances】WEB-DL - Jockstrap - Coachella 4-14-24  1080p]]></title>
                <link><![CDATA[https://sharemania.us/threads/jockstrap-coachella-4-14-24-1080p.242233/]]></link>
                <description><![CDATA[<article>
<blockquote class="messageText SelectQuoteContainer ugc baseHtml">
Björk<br>
Cambridge Corn Exchange<br>
Cambridge, England<br>
Recorded December 2, 1998<br>
Release November 26, 2001<br>
<br>
Setlist<br>
<br>
Vísur Vatnsenda Rósu<br>
Hunter<br>
Come to Me<br>
All Neon Like<br>
You've Been Flirting Again<br>
Isobel <br>
Immature <br>
Play Dead<br>
Alarm Call<br>
Human Behaviour<br>
Bachelorette<br>
Hyperballad<br>
Pluto<br>
The Anchor Song<br>
Jóga<br>
<br>
<img src="https://i.imgur.com/lGkkkVm.jpeg" class="bbCodeImage LbImage" alt="[​IMG]" data-url="https://i.imgur.com/lGkkkVm.jpeg" style=""><br>
<img src="https://i.imgur.com/UHD9u5D.jpeg" class="bbCodeImage LbImage" alt="[​IMG]" data-url="https://i.imgur.com/UHD9u5D.jpeg" style=""><br>
<img src="https://i.imgur.com/MtSiiSz.jpeg" class="bbCodeImage LbImage" alt="[​IMG]" data-url="https://i.imgur.com/MtSiiSz.jpeg" style=""><br>
<img src="https://i.imgur.com/eNhJW8N.jpeg" class="bbCodeImage LbImage" alt="[​IMG]" data-url="https://i.imgur.com/eNhJW8N.jpeg" style=""><br>
<br>
<div class="ToggleTriggerAnchor bbCodeSpoilerContainer">
<button type="button" class="button bbCodeSpoilerButton ToggleTrigger Tooltip JsOnly" data-target="> .SpoilerTarget"><span>Spoiler: <span class="SpoilerTitle">DVDInfo</span></span></button>
<div class="SpoilerTarget bbCodeSpoilerText">Calidad : DVD5<br>
Formato : DVD Vídeo<br>
Códec de vídeo : MPEG2<br>
Códec de audio : PCM<br>
Vídeo : 720x576 (4:3) 25,00 fps 7000 Kbps<br>
Audio : 48000 Hz estéreo 1536 Kbps</div>
</div><br>
<div class="bbCodeBlock bbCodeVfcHH HiddenContent">
<div class="attribution type">Hidden Content:</div>
<blockquote>You must reply before you can see the hidden data contained here.</blockquote>
</div>
<div class="messageTextEndMarker">&nbsp;</div>
</blockquote>
</article>]]></description>
                <author><![CDATA[mooosica]]></author>
                </item>

                
                <item>
                <title><![CDATA[【Requests】[REQ VID] - 4x Coachella 2024 (1080p)]]></title>
                <link><![CDATA[https://sharemania.us/threads/4x-coachella-2024-1080p.242228/]]></link>
                <description><![CDATA[<article>
<blockquote class="messageText SelectQuoteContainer ugc baseHtml">
Thank you!
<div class="messageTextEndMarker">&nbsp;</div>
</blockquote>
</article>]]></description>
                <author><![CDATA[thekiller]]></author>
                </item>

                
                <item>
                <title><![CDATA[【Requests】[REQ AUD] - Madonna/70s AM Gold]]></title>
                <link><![CDATA[https://sharemania.us/threads/madonna-70s-am-gold.242235/]]></link>
                <description><![CDATA[<article>
<blockquote class="messageText SelectQuoteContainer ugc baseHtml">
<div style="text-align: center">feeble little horse<br>
Coachella 4-14-24 1080p<br>
<a href="https://ibb.co/wNVyYLV" target="_blank" class="externalLink" rel="nofollow"><img src="https://i.ibb.co/Y7m2bWm/feeble-little-horse-4-14-24-Live-from-Coachella-2024.jpg" class="bbCodeImage LbImage" alt="[​IMG]" data-url="https://i.ibb.co/Y7m2bWm/feeble-little-horse-4-14-24-Live-from-Coachella-2024.jpg"></a>​</div>Size: 580361121 bytes (553.48 MiB), duration: 00:35:09, avg.bitrate: 2201 kb/s<br>
Audio: aac, 44100 Hz, stereo, s16, 127 kb/s (eng)<br>
Video: h264, yuv420p, 1920x1080, 2062 kb/s, 30.00 fps(r)<br>
<br>
Setlist :<br>
freak<br>
sweet<br>
Chores<br>
Picture<br>
Heavy Water<br>
steamroller<br>
Tin Man<br>
Pocket<br>
slide<br>
Down<br>
<br>
<div class="bbCodeBlock bbCodeVfcHH HiddenContent">
<div class="attribution type">Hidden Content:</div>
<blockquote>You must reply before you can see the hidden data contained here.</blockquote>
</div>
<div class="messageTextEndMarker">&nbsp;</div>
</blockquote>
</article>]]></description>
                <author><![CDATA[BV1]]></author>
                </item>

                
                <item>
                <title><![CDATA[【Albums (lossless)】PACK - Billie Eilish - Discography | Vinyl Rip | .FLAC &amp; .WAV 24bits ／ 96.0kHz &amp; 192kHz]]></title>
                <link><![CDATA[https://sharemania.us/threads/billie-eilish-discography-vinyl-rip-flac-wav-24bits-%EF%BC%8F-96-0khz-192khz.242238/]]></link>
                <description><![CDATA[<article>
<blockquote class="messageText SelectQuoteContainer ugc baseHtml">
cheers
<div class="messageTextEndMarker">&nbsp;</div>
</blockquote>
</article>]]></description>
                <author><![CDATA[Nuric]]></author>
                </item>

                
                <item>
                <title><![CDATA[【Requests】[REQ AUD] - Pet Shop Boys - Collection II]]></title>
                <link><![CDATA[https://sharemania.us/threads/pet-shop-boys-collection-ii.242234/]]></link>
                <description><![CDATA[<article>
<blockquote class="messageText SelectQuoteContainer ugc baseHtml">
nice one. thanks!
<div class="messageTextEndMarker">&nbsp;</div>
</blockquote>
</article>]]></description>
                <author><![CDATA[ladrianrm]]></author>
                </item>

                
                <item>
                <title><![CDATA[【Requests】[REQ VID] - ISOKNOCK Coachella Set (1080p) WEB]]></title>
                <link><![CDATA[https://sharemania.us/threads/isoknock-coachella-set-1080p-web.242231/]]></link>
                <description><![CDATA[<article>
<blockquote class="messageText SelectQuoteContainer ugc baseHtml">
thanks~
<div class="messageTextEndMarker">&nbsp;</div>
</blockquote>
</article>]]></description>
                <author><![CDATA[ThenAndNow52]]></author>
                </item>

                
                <item>
                <title><![CDATA[【DVD】DVD9 - Beyoncé - I Am Yours]]></title>
                <link><![CDATA[https://sharemania.us/threads/beyonc%C3%A9-i-am-yours.242232/]]></link>
                <description><![CDATA[<article>
<blockquote class="messageText SelectQuoteContainer ugc baseHtml">
thank uu
<div class="messageTextEndMarker">&nbsp;</div>
</blockquote>
</article>]]></description>
                <author><![CDATA[Kweennayy]]></author>
                </item>

                
                <item>
                <title><![CDATA[【Requests】[REQ AUD] - ford. The Color of Nothing (Qobuz 24bits 44.1kHz)]]></title>
                <link><![CDATA[https://sharemania.us/threads/ford-the-color-of-nothing-qobuz-24bits-44-1khz.242230/]]></link>
                <description><![CDATA[<article>
<blockquote class="messageText SelectQuoteContainer ugc baseHtml">
<div style="text-align: center">bar italia<br>
Coachella 4-13-24 1080p​</div><a href="https://ibb.co/pXmz0Z9" target="_blank" class="externalLink" rel="nofollow"><img src="https://i.ibb.co/9YMT82C/bar-italia-4-13-24-Live-from-Coachella-2024.jpg" class="bbCodeImage LbImage" alt="[​IMG]" data-url="https://i.ibb.co/9YMT82C/bar-italia-4-13-24-Live-from-Coachella-2024.jpg"></a><br>
<br>
Size: 550189728 bytes (524.70 MiB), duration: 00:45:54, avg.bitrate: 1598 kb/s<br>
Audio: aac, 44100 Hz, stereo, s16, 128 kb/s (eng)<br>
Video: h264, yuv420p, 1920x1080, 1462 kb/s, 30.00 fps<br>
<br>
<div class="bbCodeBlock bbCodeVfcHH HiddenContent">
<div class="attribution type">Hidden Content:</div>
<blockquote>You must reply before you can see the hidden data contained here.</blockquote>
</div>
<div class="messageTextEndMarker">&nbsp;</div>
</blockquote>
</article>]]></description>
                <author><![CDATA[negrogay]]></author>
                </item>

                
                <item>
                <title><![CDATA[【Requests】[REQ AUD] - Sabrina Carpenter - emails i can't send (Japanese Edition)]]></title>
                <link><![CDATA[https://sharemania.us/threads/sabrina-carpenter-emails-i-cant-send-japanese-edition.242240/]]></link>
                <description><![CDATA[<article>
<blockquote class="messageText SelectQuoteContainer ugc baseHtml">
thanks
<div class="messageTextEndMarker">&nbsp;</div>
</blockquote>
</article>]]></description>
                <author><![CDATA[Nuric]]></author>
                </item>

                
                <item>
                <title><![CDATA[【Music Videos】When In Rome - The Promise (Harmony Mix) (VJ-RoGeRs Video Edit) (1080p) (Clean)]]></title>
                <link><![CDATA[https://sharemania.us/threads/when-in-rome-the-promise-harmony-mix-vj-rogers-video-edit-1080p-clean.242236/]]></link>
                <description><![CDATA[<article>
<blockquote class="messageText SelectQuoteContainer ugc baseHtml">
Nice. Thanks!
<div class="messageTextEndMarker">&nbsp;</div>
</blockquote>
</article>]]></description>
                <author><![CDATA[DJ-RoGeRs-BS]]></author>
                </item>

                </channel></rss>